<svg id="favorites" xmlns="http://www.w3.org/2000/svg" viewBox="0 0 158.16 142.97"><defs><style>.cls-1{fill:#fff;}</style></defs><title>favoriters</title><path id="outer" d="M158.16,54.14c-.38,1.21-.83,2.4-1.12,3.63A46.15,46.15,0,0,1,144.9,79.52Q116,109.18,87,138.85c-5.35,5.48-10.29,5.5-15.62,0C52,119,32.51,99.25,13.26,79.24-11.11,53.9-.32,11.06,32.78,1.83,48-2.42,64.94.23,79,15.25c1.9-1.72,3.73-3.53,5.72-5.16C111-11.45,151.38,3.49,157.39,37a13.36,13.36,0,0,0,.77,2.17Zm-5.32-7.8c0-17.56-10.06-32.72-25.58-38.54-16-6-33.3-1.36-44.88,12.13-2.78,3.23-3.54,3.27-6.41,0C64.27,6.68,49.78,2.15,32.94,7.33,5,15.93-4.15,53.13,16.36,74.71c19.41,20.41,39.26,40.4,58.94,60.55,3.24,3.31,4.62,3.24,8.11-.34Q112.23,105.4,141,75.86A39.53,39.53,0,0,0,152.84,46.34Z"/><path id="inner" class="cls-1" d="M152.84,46.34A39.53,39.53,0,0,1,141,75.86q-28.84,29.51-57.62,59.06c-3.49,3.58-4.87,3.65-8.11.34C55.62,115.11,35.77,95.12,16.36,74.71-4.15,53.13,5,15.93,32.94,7.33c16.84-5.18,31.33-.65,43,12.61,2.87,3.26,3.63,3.22,6.41,0C94,6.44,111.22,1.77,127.26,7.8,142.78,13.62,152.84,28.78,152.84,46.34Z"/></svg>