<svg id="home" xmlns="http://www.w3.org/2000/svg" viewBox="0 0 160.09 162.22"><defs><style>.cls-1{fill:#fff;}</style></defs><title>home</title><path id="outline" d="M0,107.77c0-15.83-.1-31.66.13-47.49a8,8,0,0,1,2.78-5.62Q38,28.62,73.42,2.92c5.29-3.86,7.85-3.89,13-.11C109.3,19.5,132.11,36.27,155,52.91A11.26,11.26,0,0,1,160.09,63c-.15,30.66-.08,61.33-.08,92,0,7-.26,7.22-7.47,7.22h-38c-7.69,0-8-.34-8.05-8.3,0-10.5.19-21-.28-31.49s-6-17.93-15.43-22.1c-9.59-4.25-18.91-3-27.26,3.41-5.79,4.48-9.42,10.48-9.68,17.87-.37,11.16-.25,22.33-.36,33.49-.06,6.4-.79,7.12-7.22,7.12H6.76c-6.3,0-6.73-.46-6.74-6.94Q0,131.52,0,107.77ZM151.77,154c.11-1,.23-1.67.23-2.31,0-29.16.08-58.31-.12-87.46a8.05,8.05,0,0,0-3.11-5.49c-21.66-16.06-43.51-31.88-65.16-47.94-2.82-2.09-4.48-2-7.24,0Q44.06,34.79,11.48,58.33a7.58,7.58,0,0,0-3.55,7c.14,28,.08,56,.08,84V154H45.14c0-10.18-.21-20.13,0-30.06a34.84,34.84,0,0,1,69.68.58c.16,9.76,0,19.54,0,29.5Z"/><path id="inner" class="cls-1" d="M151.77,154H114.89c0-10,.13-19.74,0-29.5a34.84,34.84,0,0,0-69.68-.58c-.25,9.93,0,19.88,0,30.06H8v-4.72c0-28,.06-56-.08-84a7.58,7.58,0,0,1,3.55-7Q44,34.74,76.37,10.85c2.76-2,4.42-2.13,7.24,0,21.65,16.06,43.5,31.88,65.16,47.94a8.05,8.05,0,0,1,3.11,5.49c.2,29.15.14,58.3.12,87.46C152,152.34,151.88,153,151.77,154Z"/></svg>